<svg width="40" height="31" viewBox="0 0 40 31" fill="none" xmlns="http://www.w3.org/2000/svg">
<path d="M35.5556 0H10V31H35.5556C38.01 31 40 28.8646 40 26.2308V4.76923C40 2.13542 38.01 0 35.5556 0ZM25 24.4089C20.3978 24.4089 16.6667 20.4052 16.6667 15.4666C16.6667 11.0312 19.6789 7.36012 23.6256 6.65546C21.1589 7.88831 19.4444 10.565 19.4444 13.6782C19.4444 17.9585 22.6778 21.4282 26.6667 21.4282C29.5678 21.4282 32.0622 19.5884 33.2111 16.9415C32.5544 21.1778 29.1333 24.4089 25 24.4089ZM30.6778 11.9803L29.33 14.3912L29.0989 11.5904L26.5456 10.9609L28.9567 9.85919L28.7267 7.05846L30.4467 9.17958L32.8578 8.07788L31.5111 10.4899L33.2311 12.611L30.6778 11.9803Z" fill="#004600"/>
<path d="M4.44444 0C1.99 0 0 2.13542 0 4.76923V26.2308C0 28.8646 1.99 31 4.44444 31H10V0H4.44444Z" fill="#EEEEEE"/>
<path d="M32.8578 8.07789L30.4466 9.17959L28.7266 7.05847L28.9566 9.8592L26.5455 10.9609L29.0989 11.5904L29.33 14.3912L30.6778 11.9803L33.2311 12.611L31.5111 10.4899L32.8578 8.07789Z" fill="white"/>
<path d="M26.6666 21.4282C22.6777 21.4282 19.4444 17.9586 19.4444 13.6782C19.4444 10.5651 21.1588 7.88833 23.6255 6.65549C19.6788 7.36133 16.6666 11.0324 16.6666 15.4666C16.6666 20.4052 20.3977 24.409 25 24.409C29.1333 24.409 32.5544 21.1766 33.2111 16.9415C32.0622 19.5896 29.5677 21.4282 26.6666 21.4282Z" fill="white"/>
</svg>
