<svg width="16" height="16" viewBox="0 0 16 16" fill="none" xmlns="http://www.w3.org/2000/svg">
<path d="M13.3773 8.45511C13.3688 7.14416 14.0744 6.15469 15.5027 5.42599C14.7035 4.4651 13.4963 3.93643 11.9022 3.83284C10.3932 3.73282 8.74389 4.57226 8.14028 4.57226C7.50266 4.57226 6.04038 3.86856 4.89267 3.86856C2.52072 3.90071 0 5.45814 0 8.62657C0 9.56245 0.204038 10.5293 0.612115 11.5271C1.15622 12.838 3.12009 16.0529 5.16897 15.9993C6.24017 15.9779 6.99681 15.3599 8.39107 15.3599C9.74283 15.3599 10.4442 15.9993 11.6387 15.9993C13.7046 15.9743 15.4814 13.0524 16 11.7379C13.2285 10.6412 13.3773 8.52298 13.3773 8.45511ZM10.9713 2.58976C12.1318 1.4324 12.0255 0.37864 11.9915 0C10.9671 0.0500091 9.78108 0.585821 9.10521 1.24666C8.36132 1.95393 7.92349 2.82909 8.017 3.81498C9.12646 3.88642 10.1382 3.40776 10.9713 2.58976Z" fill="white"/>
</svg>
